<svg width="1728" height="676" viewBox="0 0 1728 676" fill="none" xmlns="http://www.w3.org/2000/svg">
<path d="M532.582 1L-480.482 427" stroke="#F9FF00" stroke-opacity="0.1"/>
<path d="M550.771 1L-363.048 427" stroke="#F9FF00" stroke-opacity="0.1"/>
<path d="M568.959 1L-257.461 427" stroke="#F9FF00" stroke-opacity="0.1"/>
<path d="M587.148 1L-161.362 427" stroke="#F9FF00" stroke-opacity="0.1"/>
<path d="M605.336 1L-72.9632 427" stroke="#F9FF00" stroke-opacity="0.1"/>
<path d="M623.525 1L9.11802 427" stroke="#F9FF00" stroke-opacity="0.1"/>
<path d="M641.713 1L85.9695 427" stroke="#F9FF00" stroke-opacity="0.1"/>
<path d="M659.902 1L158.461 427" stroke="#F9FF00" stroke-opacity="0.1"/>
<path d="M678.09 1L227.297 427" stroke="#F9FF00" stroke-opacity="0.1"/>
<path d="M696.279 1L293.058 427" stroke="#F9FF00" stroke-opacity="0.1"/>
<path d="M714.468 1L356.227 427" stroke="#F9FF00" stroke-opacity="0.1"/>
<path d="M732.656 1L417.212 427" stroke="#F9FF00" stroke-opacity="0.1"/>
<path d="M750.845 1L476.361 427" stroke="#F9FF00" stroke-opacity="0.1"/>
<path d="M769.033 1L533.979 427" stroke="#F9FF00" stroke-opacity="0.1"/>
<path d="M787.222 1L590.33 427" stroke="#F9FF00" stroke-opacity="0.1"/>
<path d="M805.411 1L645.651 427" stroke="#F9FF00" stroke-opacity="0.1"/>
<path d="M823.599 1L700.157 427" stroke="#F9FF00" stroke-opacity="0.1"/>
<path d="M841.788 1L754.045 427" stroke="#F9FF00" stroke-opacity="0.1"/>
<path d="M859.976 1L807.502 427" stroke="#F9FF00" stroke-opacity="0.1"/>
<path d="M878.165 1L860.702 427" stroke="#F9FF00" stroke-opacity="0.1"/>
<path d="M896.353 1L913.817 427" stroke="#F9FF00" stroke-opacity="0.1"/>
<path d="M914.542 1L967.017 427" stroke="#F9FF00" stroke-opacity="0.1"/>
<path d="M932.731 1L1020.47 427" stroke="#F9FF00" stroke-opacity="0.1"/>
<path d="M950.919 1L1074.36 427" stroke="#F9FF00" stroke-opacity="0.1"/>
<path d="M969.108 1L1128.87 427" stroke="#F9FF00" stroke-opacity="0.1"/>
<path d="M987.297 1L1184.19 427" stroke="#F9FF00" stroke-opacity="0.1"/>
<path d="M1005.48 1L1240.54 427" stroke="#F9FF00" stroke-opacity="0.1"/>
<path d="M1023.67 1L1298.16 427" stroke="#F9FF00" stroke-opacity="0.1"/>
<path d="M1041.86 1L1357.31 427" stroke="#F9FF00" stroke-opacity="0.1"/>
<path d="M1060.05 1L1418.29 427" stroke="#F9FF00" stroke-opacity="0.1"/>
<path d="M1078.24 1L1481.46 427" stroke="#F9FF00" stroke-opacity="0.1"/>
<path d="M1096.43 1L1547.22 427" stroke="#F9FF00" stroke-opacity="0.1"/>
<path d="M1114.62 1L1616.06 427" stroke="#F9FF00" stroke-opacity="0.1"/>
<path d="M1132.81 1L1688.55 427" stroke="#F9FF00" stroke-opacity="0.1"/>
<path d="M1150.99 1L1765.4 427" stroke="#F9FF00" stroke-opacity="0.1"/>
<path d="M1169.18 1L1847.48 427" stroke="#F9FF00" stroke-opacity="0.1"/>
<path d="M1187.37 1L1935.88 427" stroke="#F9FF00" stroke-opacity="0.1"/>
<path d="M1205.56 1L2031.98 427" stroke="#F9FF00" stroke-opacity="0.1"/>
<path d="M1223.75 1L2137.57 427" stroke="#F9FF00" stroke-opacity="0.1"/>
<path d="M1241.94 1L2255 427" stroke="#F9FF00" stroke-opacity="0.1"/>
<path d="M532.582 1H1241.94" stroke="#F9FF00" stroke-opacity="0.1"/>
<path d="M529.488 2.30078H1245.03" stroke="#F9FF00" stroke-opacity="0.1"/>
<path d="M527.994 2.9292H1246.52" stroke="#F9FF00" stroke-opacity="0.1"/>
<path d="M525.929 3.79761H1248.59" stroke="#F9FF00" stroke-opacity="0.1"/>
<path d="M523.128 4.97559H1251.39" stroke="#F9FF00" stroke-opacity="0.1"/>
<path d="M519.387 6.54858H1255.13" stroke="#F9FF00" stroke-opacity="0.1"/>
<path d="M514.463 8.61938H1260.06" stroke="#F9FF00" stroke-opacity="0.1"/>
<path d="M508.065 11.3093H1266.45" stroke="#F9FF00" stroke-opacity="0.1"/>
<path d="M499.852 14.7632H1274.67" stroke="#F9FF00" stroke-opacity="0.1"/>
<path d="M489.421 19.1494H1285.1" stroke="#F9FF00" stroke-opacity="0.1"/>
<path d="M476.305 24.6646H1298.21" stroke="#F9FF00" stroke-opacity="0.1"/>
<path d="M459.964 31.5364H1314.55" stroke="#F9FF00" stroke-opacity="0.1"/>
<path d="M439.775 40.0259H1334.74" stroke="#F9FF00" stroke-opacity="0.1"/>
<path d="M415.026 50.4329H1359.49" stroke="#F9FF00" stroke-opacity="0.1"/>
<path d="M384.908 63.0979H1389.61" stroke="#F9FF00" stroke-opacity="0.1"/>
<path d="M348.503 78.4065H1426.02" stroke="#F9FF00" stroke-opacity="0.1"/>
<path d="M304.775 96.7944H1469.74" stroke="#F9FF00" stroke-opacity="0.1"/>
<path d="M252.56 118.751H1521.96" stroke="#F9FF00" stroke-opacity="0.1"/>
<path d="M190.557 144.824H1583.96" stroke="#F9FF00" stroke-opacity="0.1"/>
<path d="M117.313 175.623H1657.21" stroke="#F9FF00" stroke-opacity="0.1"/>
<path d="M31.2111 211.83H1743.31" stroke="#F9FF00" stroke-opacity="0.1"/>
<path d="M-69.538 254.195H1844.06" stroke="#F9FF00" stroke-opacity="0.1"/>
<path d="M-186.913 303.552H1961.43" stroke="#F9FF00" stroke-opacity="0.1"/>
<path d="M-323.095 360.818H2097.61" stroke="#F9FF00" stroke-opacity="0.1"/>
<path d="M-480.482 427H2255" stroke="#F9FF00" stroke-opacity="0.1"/>
<path d="M9 427V675.5" stroke="url(#paint0_linear_335_408)" stroke-opacity="0.2"/>
<path d="M86 427V675.5" stroke="url(#paint1_linear_335_408)" stroke-opacity="0.2"/>
<path d="M159 427V675.5" stroke="url(#paint2_linear_335_408)" stroke-opacity="0.2"/>
<path d="M228 427V675.5" stroke="url(#paint3_linear_335_408)" stroke-opacity="0.2"/>
<path d="M293 427V675.5" stroke="url(#paint4_linear_335_408)" stroke-opacity="0.2"/>
<path d="M356 427V675.5" stroke="url(#paint5_linear_335_408)" stroke-opacity="0.2"/>
<path d="M418 427V675.5" stroke="url(#paint6_linear_335_408)" stroke-opacity="0.2"/>
<path d="M476 427V675.5" stroke="url(#paint7_linear_335_408)" stroke-opacity="0.2"/>
<path d="M534 427V675.5" stroke="url(#paint8_linear_335_408)" stroke-opacity="0.2"/>
<path d="M591 427V675.5" stroke="url(#paint9_linear_335_408)" stroke-opacity="0.2"/>
<path d="M646 427V675.5" stroke="url(#paint10_linear_335_408)" stroke-opacity="0.2"/>
<path d="M700 427V675.5" stroke="url(#paint11_linear_335_408)" stroke-opacity="0.2"/>
<path d="M754 427V675.5" stroke="url(#paint12_linear_335_408)" stroke-opacity="0.2"/>
<path d="M807 427V675.5" stroke="url(#paint13_linear_335_408)" stroke-opacity="0.2"/>
<path d="M861 427V675.5" stroke="url(#paint14_linear_335_408)" stroke-opacity="0.2"/>
<path d="M914 427V675.5" stroke="url(#paint15_linear_335_408)" stroke-opacity="0.2"/>
<path d="M967 427V675.5" stroke="url(#paint16_linear_335_408)" stroke-opacity="0.2"/>
<path d="M1021 427V675.5" stroke="url(#paint17_linear_335_408)" stroke-opacity="0.2"/>
<path d="M1075 427V675.5" stroke="url(#paint18_linear_335_408)" stroke-opacity="0.2"/>
<path d="M1129 427V675.5" stroke="url(#paint19_linear_335_408)" stroke-opacity="0.2"/>
<path d="M1184 427V675.5" stroke="url(#paint20_linear_335_408)" stroke-opacity="0.2"/>
<path d="M1241 427V675.5" stroke="url(#paint21_linear_335_408)" stroke-opacity="0.2"/>
<path d="M1298 427V675.5" stroke="url(#paint22_linear_335_408)" stroke-opacity="0.2"/>
<path d="M1357 427V675.5" stroke="url(#paint23_linear_335_408)" stroke-opacity="0.2"/>
<path d="M1418 427V675.5" stroke="url(#paint24_linear_335_408)" stroke-opacity="0.2"/>
<path d="M1481 427V675.5" stroke="url(#paint25_linear_335_408)" stroke-opacity="0.2"/>
<path d="M1547 427V675.5" stroke="url(#paint26_linear_335_408)" stroke-opacity="0.2"/>
<path d="M1616 427V675.5" stroke="url(#paint27_linear_335_408)" stroke-opacity="0.2"/>
<path d="M1688 427V675.5" stroke="url(#paint28_linear_335_408)" stroke-opacity="0.2"/>
<defs>
<linearGradient id="paint0_linear_335_408" x1="9.5" y1="427" x2="9.5" y2="675.5" gradientUnits="userSpaceOnUse">
<stop stop-color="#E0E500"/>
<stop offset="1" stop-color="#E0E500" stop-opacity="0"/>
</linearGradient>
<linearGradient id="paint1_linear_335_408" x1="86.5" y1="427" x2="86.5" y2="675.5" gradientUnits="userSpaceOnUse">
<stop stop-color="#E0E500"/>
<stop offset="1" stop-color="#E0E500" stop-opacity="0"/>
</linearGradient>
<linearGradient id="paint2_linear_335_408" x1="159.5" y1="427" x2="159.5" y2="675.5" gradientUnits="userSpaceOnUse">
<stop stop-color="#E0E500"/>
<stop offset="1" stop-color="#E0E500" stop-opacity="0"/>
</linearGradient>
<linearGradient id="paint3_linear_335_408" x1="228.5" y1="427" x2="228.5" y2="675.5" gradientUnits="userSpaceOnUse">
<stop stop-color="#E0E500"/>
<stop offset="1" stop-color="#E0E500" stop-opacity="0"/>
</linearGradient>
<linearGradient id="paint4_linear_335_408" x1="293.5" y1="427" x2="293.5" y2="675.5" gradientUnits="userSpaceOnUse">
<stop stop-color="#E0E500"/>
<stop offset="1" stop-color="#E0E500" stop-opacity="0"/>
</linearGradient>
<linearGradient id="paint5_linear_335_408" x1="356.5" y1="427" x2="356.5" y2="675.5" gradientUnits="userSpaceOnUse">
<stop stop-color="#E0E500"/>
<stop offset="1" stop-color="#E0E500" stop-opacity="0"/>
</linearGradient>
<linearGradient id="paint6_linear_335_408" x1="418.5" y1="427" x2="418.5" y2="675.5" gradientUnits="userSpaceOnUse">
<stop stop-color="#E0E500"/>
<stop offset="1" stop-color="#E0E500" stop-opacity="0"/>
</linearGradient>
<linearGradient id="paint7_linear_335_408" x1="476.5" y1="427" x2="476.5" y2="675.5" gradientUnits="userSpaceOnUse">
<stop stop-color="#E0E500"/>
<stop offset="1" stop-color="#E0E500" stop-opacity="0"/>
</linearGradient>
<linearGradient id="paint8_linear_335_408" x1="534.5" y1="427" x2="534.5" y2="675.5" gradientUnits="userSpaceOnUse">
<stop stop-color="#E0E500"/>
<stop offset="1" stop-color="#E0E500" stop-opacity="0"/>
</linearGradient>
<linearGradient id="paint9_linear_335_408" x1="591.5" y1="427" x2="591.5" y2="675.5" gradientUnits="userSpaceOnUse">
<stop stop-color="#E0E500"/>
<stop offset="1" stop-color="#E0E500" stop-opacity="0"/>
</linearGradient>
<linearGradient id="paint10_linear_335_408" x1="646.5" y1="427" x2="646.5" y2="675.5" gradientUnits="userSpaceOnUse">
<stop stop-color="#E0E500"/>
<stop offset="1" stop-color="#E0E500" stop-opacity="0"/>
</linearGradient>
<linearGradient id="paint11_linear_335_408" x1="700.5" y1="427" x2="700.5" y2="675.5" gradientUnits="userSpaceOnUse">
<stop stop-color="#E0E500"/>
<stop offset="1" stop-color="#E0E500" stop-opacity="0"/>
</linearGradient>
<linearGradient id="paint12_linear_335_408" x1="754.5" y1="427" x2="754.5" y2="675.5" gradientUnits="userSpaceOnUse">
<stop stop-color="#E0E500"/>
<stop offset="1" stop-color="#E0E500" stop-opacity="0"/>
</linearGradient>
<linearGradient id="paint13_linear_335_408" x1="807.5" y1="427" x2="807.5" y2="675.5" gradientUnits="userSpaceOnUse">
<stop stop-color="#E0E500"/>
<stop offset="1" stop-color="#E0E500" stop-opacity="0"/>
</linearGradient>
<linearGradient id="paint14_linear_335_408" x1="861.5" y1="427" x2="861.5" y2="675.5" gradientUnits="userSpaceOnUse">
<stop stop-color="#E0E500"/>
<stop offset="1" stop-color="#E0E500" stop-opacity="0"/>
</linearGradient>
<linearGradient id="paint15_linear_335_408" x1="914.5" y1="427" x2="914.5" y2="675.5" gradientUnits="userSpaceOnUse">
<stop stop-color="#E0E500"/>
<stop offset="1" stop-color="#E0E500" stop-opacity="0"/>
</linearGradient>
<linearGradient id="paint16_linear_335_408" x1="967.5" y1="427" x2="967.5" y2="675.5" gradientUnits="userSpaceOnUse">
<stop stop-color="#E0E500"/>
<stop offset="1" stop-color="#E0E500" stop-opacity="0"/>
</linearGradient>
<linearGradient id="paint17_linear_335_408" x1="1021.5" y1="427" x2="1021.5" y2="675.5" gradientUnits="userSpaceOnUse">
<stop stop-color="#E0E500"/>
<stop offset="1" stop-color="#E0E500" stop-opacity="0"/>
</linearGradient>
<linearGradient id="paint18_linear_335_408" x1="1075.5" y1="427" x2="1075.5" y2="675.5" gradientUnits="userSpaceOnUse">
<stop stop-color="#E0E500"/>
<stop offset="1" stop-color="#E0E500" stop-opacity="0"/>
</linearGradient>
<linearGradient id="paint19_linear_335_408" x1="1129.5" y1="427" x2="1129.5" y2="675.5" gradientUnits="userSpaceOnUse">
<stop stop-color="#E0E500"/>
<stop offset="1" stop-color="#E0E500" stop-opacity="0"/>
</linearGradient>
<linearGradient id="paint20_linear_335_408" x1="1184.5" y1="427" x2="1184.5" y2="675.5" gradientUnits="userSpaceOnUse">
<stop stop-color="#E0E500"/>
<stop offset="1" stop-color="#E0E500" stop-opacity="0"/>
</linearGradient>
<linearGradient id="paint21_linear_335_408" x1="1241.5" y1="427" x2="1241.5" y2="675.5" gradientUnits="userSpaceOnUse">
<stop stop-color="#E0E500"/>
<stop offset="1" stop-color="#E0E500" stop-opacity="0"/>
</linearGradient>
<linearGradient id="paint22_linear_335_408" x1="1298.5" y1="427" x2="1298.5" y2="675.5" gradientUnits="userSpaceOnUse">
<stop stop-color="#E0E500"/>
<stop offset="1" stop-color="#E0E500" stop-opacity="0"/>
</linearGradient>
<linearGradient id="paint23_linear_335_408" x1="1357.5" y1="427" x2="1357.5" y2="675.5" gradientUnits="userSpaceOnUse">
<stop stop-color="#E0E500"/>
<stop offset="1" stop-color="#E0E500" stop-opacity="0"/>
</linearGradient>
<linearGradient id="paint24_linear_335_408" x1="1418.5" y1="427" x2="1418.5" y2="675.5" gradientUnits="userSpaceOnUse">
<stop stop-color="#E0E500"/>
<stop offset="1" stop-color="#E0E500" stop-opacity="0"/>
</linearGradient>
<linearGradient id="paint25_linear_335_408" x1="1481.5" y1="427" x2="1481.5" y2="675.5" gradientUnits="userSpaceOnUse">
<stop stop-color="#E0E500"/>
<stop offset="1" stop-color="#E0E500" stop-opacity="0"/>
</linearGradient>
<linearGradient id="paint26_linear_335_408" x1="1547.5" y1="427" x2="1547.5" y2="675.5" gradientUnits="userSpaceOnUse">
<stop stop-color="#E0E500"/>
<stop offset="1" stop-color="#E0E500" stop-opacity="0"/>
</linearGradient>
<linearGradient id="paint27_linear_335_408" x1="1616.5" y1="427" x2="1616.5" y2="675.5" gradientUnits="userSpaceOnUse">
<stop stop-color="#E0E500"/>
<stop offset="1" stop-color="#E0E500" stop-opacity="0"/>
</linearGradient>
<linearGradient id="paint28_linear_335_408" x1="1688.5" y1="427" x2="1688.5" y2="675.5" gradientUnits="userSpaceOnUse">
<stop stop-color="#E0E500"/>
<stop offset="1" stop-color="#E0E500" stop-opacity="0"/>
</linearGradient>
</defs>
</svg>
