<?xml version="1.0" encoding="utf-8"?>
<!-- Generator: Adobe Illustrator 27.9.0, SVG Export Plug-In . SVG Version: 6.00 Build 0)  -->
<svg version="1.1" id="katman_1" xmlns="http://www.w3.org/2000/svg"
    xmlns:xlink="http://www.w3.org/1999/xlink" x="0px" y="0px"
    viewBox="0 0 23 24" style="enable-background:new 0 0 23 24;" xml:space="preserve">
<style type="text/css">
	.st0{clip-path:url(#SVGID_00000040536271542346349050000010359791111755746695_);}
	.st1{fill:url(#SVGID_00000124149814914275866720000014563793609587168948_);}
	.st2{opacity:0.1;enable-background:new    ;}
	.st3{clip-path:url(#SVGID_00000057836362632174627590000002878404977143221401_);}
	.st4{fill:url(#SVGID_00000166641241579932945590000006424653837851388590_);}
	.st5{clip-path:url(#SVGID_00000175310508216076874630000013649714545623031216_);}
	.st6{fill:url(#SVGID_00000109742708206840127780000003339697761317852565_);}
	.st7{opacity:0.1;stroke:#000000;stroke-width:5.251176e-04;stroke-miterlimit:10;enable-background:new    ;}
	.st8{clip-path:url(#SVGID_00000057116939106598765850000012460621424114201757_);}
	.st9{fill:url(#SVGID_00000111870761274855585050000001370976201234278541_);}
	
		.st10{opacity:0.1;fill-rule:evenodd;clip-rule:evenodd;stroke:#000000;stroke-width:5.251176e-04;stroke-miterlimit:10;enable-background:new    ;}
	.st11{clip-path:url(#SVGID_00000106115508555928691220000006186735036229525438_);}
	.st12{fill:url(#SVGID_00000118389065151307361460000000475283521527351478_);}
</style>
<g id="Layer_2">
	<g id="Layer_1-2">
		<g>
			<g>
				<defs>
					<path id="SVGID_1_" d="M7,19.7c-4.3-2.2-6-7.3-4.5-11.8c0.1-0.3-0.1-0.6-0.3-0.7L2,7.1L1.9,7.4C1.7,7.7,1.6,8,1.5,8.4
						C-0.5,13.9,2.4,20,7.9,22c0,0,0.1,0,0.1,0c2.5,0.5,4.9,0.4,6.7-0.6c1.9-1,3.2-2.9,4.5-5.3c-0.4,0.8-0.9,1.4-1.5,2
						C14.9,21,10.5,21.5,7,19.7L7,19.7z"/>
				</defs>
				<clipPath id="SVGID_00000002367689285240591670000015769403319402999735_">
					<use xlink:href="#SVGID_1_"  style="overflow:visible;"/>
				</clipPath>
				<g style="clip-path:url(#SVGID_00000002367689285240591670000015769403319402999735_);">
					
						<linearGradient id="SVGID_00000008125127983915849010000001900937431425629601_" gradientUnits="userSpaceOnUse" x1="-449.0365" y1="-980.1667" x2="-437.7901" y2="-961.2052" gradientTransform="matrix(1 0 0 1 454 985.7638)">
						<stop  offset="0.14" style="stop-color:#FFCD02"/>
						<stop  offset="0.37" style="stop-color:#FF963B"/>
						<stop  offset="0.7" style="stop-color:#FF6373"/>
						<stop  offset="1" style="stop-color:#FF4295"/>
					</linearGradient>
					
						<rect x="0.6" y="6.8" style="fill:url(#SVGID_00000008125127983915849010000001900937431425629601_);" width="19.8" height="16.3"/>
					<ellipse class="st2" cx="11.5" cy="11.7" rx="10.1" ry="10"/>
				</g>
			</g>
		</g>
		<g>
			<g>
				<defs>
					<path id="SVGID_00000004527339419504275310000009976428953559881876_" d="M5.5,16.1c2.9,2.9,7.7,3.8,10.8,0.7
						c1.5-3.7,0.8-5.9-1.4-7.1c1,1.3,1.1,3,0.4,4.5C13.6,17.2,9,17,6.8,14.7c-1.1-1.1-1.8-2.6-1.9-4.1C4.2,6.8,5.7,3.7,9.4,1.6
						c-2.9,0.6-5,2.7-6.1,5.6C2.4,10.3,3.2,13.7,5.5,16.1z"/>
				</defs>
				<clipPath id="SVGID_00000013900996071494056820000017140775573845991821_">
					<use xlink:href="#SVGID_00000004527339419504275310000009976428953559881876_"  style="overflow:visible;"/>
				</clipPath>
				<g style="clip-path:url(#SVGID_00000013900996071494056820000017140775573845991821_);">
					
						<linearGradient id="SVGID_00000044871622245970221910000002582288813537061507_" gradientUnits="userSpaceOnUse" x1="-452.3964" y1="-983.8062" x2="-435.076" y2="-966.4858" gradientTransform="matrix(1 0 0 1 454 985.7638)">
						<stop  offset="0" style="stop-color:#1B59D2"/>
						<stop  offset="0.51" style="stop-color:#4E9BF2"/>
						<stop  offset="0.98" style="stop-color:#1B59D2"/>
					</linearGradient>
					
						<rect x="2.6" y="1" style="fill:url(#SVGID_00000044871622245970221910000002582288813537061507_);" width="15.3" height="19.3"/>
					<path class="st2" d="M17.8,9.7c0,5-3,7.7-6.5,7.7c-4.3,0-7.6-3.5-7.6-8s3.5-8.2,7.9-8.2S17.8,5.2,17.8,9.7z"/>
				</g>
			</g>
		</g>
		<g>
			<g>
				<defs>
					<path id="SVGID_00000123403346866347046160000010152538953010135444_" d="M10.1,8.3c1.8-0.6,3.6-0.2,4.7,1.3
						c1.1,0.9,1.7,2.1,1.8,3.7c0.1,1-0.1,2.1-0.4,3.4c2.6-2.6,2.6-6.9,0-9.5l0,0c-2.6-2.6-5.6-2.4-8.7-0.8L7.4,6.5l0.2,4.9
						c0.2-0.7,0.8-0.8,1.2-1.3C9.2,9.6,9.5,8.6,10.1,8.3z"/>
				</defs>
				<clipPath id="SVGID_00000067197496541844137200000009228493503607948199_">
					<use xlink:href="#SVGID_00000123403346866347046160000010152538953010135444_"  style="overflow:visible;"/>
				</clipPath>
				<g style="clip-path:url(#SVGID_00000067197496541844137200000009228493503607948199_);">
					
						<linearGradient id="SVGID_00000165201412994339184830000000897806629538004882_" gradientUnits="userSpaceOnUse" x1="-448.2303" y1="-979.1539" x2="-434.1232" y2="-971.0089" gradientTransform="matrix(1 0 0 1 454 985.7638)">
						<stop  offset="0" style="stop-color:#50AFF3"/>
						<stop  offset="0.33" style="stop-color:#4064C5"/>
						<stop  offset="1" style="stop-color:#6C349F"/>
					</linearGradient>
					
						<rect x="7" y="4.4" style="fill:url(#SVGID_00000165201412994339184830000000897806629538004882_);" width="11.6" height="12.6"/>
					<path class="st7" d="M2.2,1.2v22h19.1v-22H2.2z M11.2,19.1c-3.5,0-5.7-1.2-5.7-4.7c0-3.5,2.6-7.8,6.1-7.8
						c2.9,0,5.9,2.6,5.9,6.1C17.6,16.3,14.7,19.1,11.2,19.1C11.2,19.1,11.2,19.1,11.2,19.1z"/>
				</g>
			</g>
		</g>
		<g>
			<g>
				<defs>
					<path id="SVGID_00000076563958484111741790000008786073041430108049_" d="M11.5,3.2c4.8,0,8.7,3.9,8.7,8.7c0,1.5-0.4,2.9-1,4.2
						C16.7,21,13,23,8,22c5.6,1.9,11.6-1,13.6-6.5c1.9-5.6-1-11.6-6.5-13.6c-1-0.4-2.1-0.6-3.2-0.6c-0.1,0-0.2,0-0.3,0
						c-0.7,0-1.4,0.1-2.1,0.2c-4,2.2-5.5,5.2-4.5,9.1c-0.3-2.9,1.3-5.7,3.9-7l0.4-0.1C10,3.3,10.7,3.2,11.5,3.2L11.5,3.2z"/>
				</defs>
				<clipPath id="SVGID_00000015354827882368423410000003656707768765504703_">
					<use xlink:href="#SVGID_00000076563958484111741790000008786073041430108049_"  style="overflow:visible;"/>
				</clipPath>
				<g style="clip-path:url(#SVGID_00000015354827882368423410000003656707768765504703_);">
					
						<linearGradient id="SVGID_00000163761275550299349100000015033391674793355667_" gradientUnits="userSpaceOnUse" x1="-445.2212" y1="-986.4108" x2="-436.0319" y2="-961.1635" gradientTransform="matrix(1 0 0 1 454 985.7638)">
						<stop  offset="0" style="stop-color:#A700BA"/>
						<stop  offset="0.49" style="stop-color:#C00C95"/>
						<stop  offset="0.86" style="stop-color:#DB1B62"/>
					</linearGradient>
					
						<rect x="4.2" y="1" style="fill:url(#SVGID_00000163761275550299349100000015033391674793355667_);" width="18.4" height="21.9"/>
					<path class="st10" d="M0-3.1v28.8h23.7V-3.1H0z M11.7,22.3c-5.2,0-9.5-4.5-9.5-10.1S6.5,2.1,11.7,2.1s9.5,4.5,9.5,10.1
						S17,22.3,11.7,22.3z"/>
				</g>
			</g>
		</g>
		<g>
			<g>
				<defs>
					<path id="SVGID_00000121967588993459628410000011041276117143017642_" d="M10.2,15.7l-0.1-7.4C9.6,8.6,9,9,8.6,9.5
						c-0.4,0.5-0.8,1.2-1.1,1.9l0.1,3l0.1,0.1C8.6,15.2,9.4,15.5,10.2,15.7L10.2,15.7z"/>
				</defs>
				<clipPath id="SVGID_00000000941231059574414710000014072328202457141123_">
					<use xlink:href="#SVGID_00000121967588993459628410000011041276117143017642_"  style="overflow:visible;"/>
				</clipPath>
				<g style="clip-path:url(#SVGID_00000000941231059574414710000014072328202457141123_);">
					
						<linearGradient id="SVGID_00000078006539173990938100000018360267409549331073_" gradientUnits="userSpaceOnUse" x1="-445.0913" y1="-977.5559" x2="-445.0913" y2="-969.9904" gradientTransform="matrix(1 0 0 1 454 985.7638)">
						<stop  offset="0" style="stop-color:#1C58D2"/>
						<stop  offset="0.33" style="stop-color:#5734CA"/>
						<stop  offset="1" style="stop-color:#A203BC"/>
					</linearGradient>
					
						<rect x="7.5" y="8.2" style="fill:url(#SVGID_00000078006539173990938100000018360267409549331073_);" width="2.9" height="7.6"/>
					
						<rect x="8.9" y="7.1" transform="matrix(0.9996 -2.998502e-02 2.998502e-02 0.9996 -0.3409 0.3047)" class="st2" width="2.1" height="8.9"/>
				</g>
			</g>
		</g>
	</g>
</g>
</svg>